<svg version="1.1" xmlns="http://www.w3.org/2000/svg" xmlns:xlink="http://www.w3.org/1999/xlink" x="0px" y="0px"
	 viewBox="0 0 358.7 361.5" style="enable-background:new 0 0 358.7 361.5;" xml:space="preserve">
<style type="text/css">
	.st0{display:none;}
	.st1{fill:#FFCA27;}
	.st2{fill:none;}
</style>
<g id="Layer_2" class="st0">

		<image style="display:inline;overflow:visible;" width="966" height="966" xlink:href="vertical.jpg"  transform="matrix(0.3721 0 0 0.3721 -9.340046e-03 1.770670e-02)">
	</image>
</g>
<g id="Layer_1">
	<g>
		<g>
			<path class="st1" d="M272.3,174.9c0-50.7-39.8-91.8-88.9-91.8s-88.9,41.1-88.9,91.8c0,25,9.7,47.7,25.4,64.2h127.1
				C262.6,222.6,272.3,199.9,272.3,174.9z"/>
		</g>
		<g>
			<path class="st2" d="M202.3,88.9c-1.5-0.2-3.1-0.4-4.6-0.6c-1-0.5-2-1.1-3-1.6v-6.8c-3.9-0.5-7.8-0.7-11.8-0.7
				c-50.6,0-91.7,40.3-91.7,90c0,24.9,10.3,47.5,27,63.8c16.7-0.5,37.2-0.8,59.3-0.8c26.9,0,51.4,0.4,69.6,1.2
				c16.9-16.3,27.4-39,27.4-64.2c0-41.1-28.1-75.8-66.5-86.6c-1.4,1.5-2.8,3.1-4.1,4.7C203.5,88,202.9,88.6,202.3,88.9z"/>
			<path d="M254.6,233.7c17.4-17.6,28.2-41.7,28.2-68.1c0-44.5-30.3-82.1-71.7-94c0.2,1.1,0.6,2.3,1.6,3.4c1.6,2,0.8,2.6-1,4.3
				c-1.2,1.1-2.3,2.2-3.4,3.4c38.4,10.7,66.5,45.4,66.5,86.6c0,25.1-10.5,47.8-27.4,64.2c-18.2-0.7-42.7-1.2-69.6-1.2
				c-22.1,0-42.6,0.3-59.3,0.8c-16.7-16.3-27-38.9-27-63.8c0-49.7,41-90,91.7-90c4,0,7.9,0.3,11.8,0.7V68.2
				c-3.9-0.5-7.9-0.7-11.9-0.7c-55.2,0-100,43.9-100,98c0,26.3,10.6,50.1,27.7,67.7c-21.2,0.8-34.7,1.9-34.7,3.2
				c0,1.4,16.5,2.7,41.9,3.5c2.8,0.1,5.7,0.2,8.8,0.2c15,0.4,32.4,0.6,51,0.6c23.4,0,44.9-0.3,62.1-0.9c3-0.1,5.9-0.2,8.6-0.3
				c19.1-0.8,31-1.9,31-3.1C279.3,235.4,270,234.4,254.6,233.7z"/>
		</g>
		<g>
			<path class="st2" d="M161.6,144.8c-1.2-4-3.2-7.8-2-12.2c-2,6.1-3.8,12.2-5.6,18.3c-0.2,0.8-0.2,1.8,0,2.6
				c0.9,5.8,2,11.6,2.9,17.5c0.8,5.3,1.5,10.6,2.2,15.9c0.6,4.6,1.2,9.3,1.7,13.9c0.3,3.4,0.4,6.8,0.6,10.5c0.1-1.2,0.4-2.1,0.4-2.9
				c-0.2-3.7-0.3-7.3-0.7-11c-0.6-5.7-1.4-11.5-2.1-17.2c-0.2-2,0-3.8,0.8-5.6c1.5-3.5,2.9-7.1,4.1-10.8c0.9-2.6,2.1-5.3,1.2-8.1
				C163.9,152,162.7,148.4,161.6,144.8z"/>
			<path class="st2" d="M160.7,128.9c0.2,0.1,0.4,0.2,0.5,0.3c1.8-3.7,3.6-7.3,5.4-11c-0.2-0.1-0.3-0.2-0.5-0.3
				C164.3,121.5,162.5,125.2,160.7,128.9z"/>
			<g>
				<path d="M251.1,157.4c-0.3-1.4-1.2-2.9-2.1-4c-2.2-2.7-5.4-4.1-8.5-5.2c-1.4-0.5-3.1-0.6-4.4-0.2c-2.1,0.6-4.1,1.7-6,2.8
					c-4.6,2.7-9.2,5.2-13.5,8.3c-5.4,3.8-10.5,7.9-15.7,12c-2,1.6-3.7,3.5-5.7,5.3c-0.5-1.2-1-2.1-1.3-3c-1.3-3.4-3.2-6.7-2.5-10.6
					c0.3-1.9,0.9-3.9,1.4-5.8c1.6-6.1,2.9-12.3,0-18.5c-0.2-0.4,0.1-1.3,0.4-1.5c3.3-2.1,5.6-4.9,6.2-8.8c0.5-3.5,0.8-6.9-2.4-9.6
					c-2.9-2.5-5.4-5.4-7.8-7.9c0.5-0.9,1.1-1.5,1.1-2.1c0.1-1.6,0.1-3.3-0.1-4.9c-0.8-5.1-1.9-7.3-6.9-8.4c-1.1-0.2-2.2,0-3.3-0.3
					c-0.5-0.1-1.2-1-1.2-1.4c0.4-2.7,1.3-5.2,2.8-7.4c0,0-0.1,0-0.1,0c0.3-0.4,0.5-0.8,0.9-1.1c0.3-0.4,1.4-0.5,1.9-0.3
					c1.2,0.5,2.3,1.2,3.5,1.9c2.5,2.6,4.6,0.6,4.6,0.6c0.6-0.4,1.2-0.9,1.7-1.6c2.3-2.9,4.8-5.7,7.5-8.1c1.9-1.6,2.6-2.3,1-4.3
					c-3.1-3.9-1-7.7-0.3-11.6c0-0.1,0.2-0.1,0.4-0.2c0.5,0.3,1,0.6,1.4,0.9c3.5-3.6,4-9.6,0.1-13.1c-1.5-1.4-3.3-2.6-5.1-3.6
					c-5.3-2.8-11.3-3.5-17-5.2c-1.4-0.4-2.8-1.1-4-2c-1.1-0.8-2-1.9-2.8-2.9c-2.3-2.7-4.5-5.5-3.7-9.5c0.2-1.1,0.6-2.3,0.9-3.4
					c0.1-0.5-0.1-1-0.1-1.5c-0.5,0.2-1,0.3-1.4,0.7c-0.4,0.3-0.6,0.8-0.8,1.2c-3.7,6.2-5,13.1-5,20.2c0,3.3-0.6,6.3-1.7,9.5
					c-1.3,4.1-1.3,8.3,0.3,12.4c0.6,1.5,1.1,2.9,1.7,4.4c0,0-0.1,0-0.1,0c1.3,2.7,1.8,5.7,1.2,8.8c-0.2,1-0.5,2-0.9,3c0,0,0,0,0,0
					c-0.9,2.7-2.3,4.2-4,5.6c-0.9,0.7-1.7,1.4-2.5,2.1c0,0,0.1,0,0.1,0c-0.5,0.4-1,0.8-1.5,1.2c-0.4,0.3-1,0.5-1.6,0.4
					c-0.9-0.1-1.6-0.1-2.2-0.1c-1.1,0.4-2.1,0.8-3.1,1.2c-0.6,0.8-1,2-1.5,3.8c-1.1,4.3-1.8,8.8-2.5,13.2c-0.1,0.6,0.5,1.3,0.8,2
					c0.5-0.6,1.1-1.1,1.5-1.7c0.3-0.4,0.3-0.9,0.7-1.3c-0.6,2.7-1.2,5.4-1.7,8.2c-0.9,4.8-1.8,9.5-2.4,14.3
					c-0.7,5.2-0.9,10.5-1.4,15.8c-0.4,4.1-0.7,8.2-1.2,12.2c-0.3,2.8-0.7,5.6-1.1,8.3c-0.5,3.6,1,6.7,2,10c0.8,2.6,1.8,5.2,2.8,7.7
					c1.8,4.6,3.7,9.2,5.4,13.9c0.8,2.2,1.6,4.5,1.9,6.8c0.2,1.1-0.6,2.3-1.1,3.4c-1.8,4-3.5,7.9-3.5,12.4c0,2.7,0.9,4.8,2.8,6.7
					c0.2,0.2,0.3,0.4,0.5,0.6c0.1,0.1,0,0.2,0.1,0.8c-1.7-0.3-3.3-0.5-4.8-1c-8.2-2.5-15.8-6.2-21.7-12.6c-3.6-3.9-6-8.4-7.5-13.6
					c-2.3-8.1,0.1-15.2,4.4-21.9c2.6-4.1,6.1-7.4,9.6-10.7c0.7-0.7,1.3-1.6,1.7-2.6c0.8-2-0.2-3.2-2.3-2.8c-4,0.8-7.4,2.8-10.6,5.3
					c-8.3,6.5-13.7,15-15.4,25.5c-0.7,4.7-0.7,9.7,0.5,14.5c1.1,4.2,2.3,8.3,4.7,11.9c2.4,3.7,5.5,6.6,9.2,9
					c0.5,0.3,0.9,0.6,1.3,0.9c0,0.2-0.1,0.5-0.1,0.7c-0.6,1.5-1.3,3.1-1.9,4.6c34.1,0.6,88.4,1.3,123.9,0.2c1.4-2.8,1-5.1-1.4-5.6
					c-3-0.6-6.1-0.8-9.2-1.2c-2.6-0.3-5.3-0.7-7.9-1c-0.1-0.3-0.1-0.5-0.2-0.8c2.7-2.4,5.4-4.8,8.1-7.1c3.4-3,6.7-6.2,9.2-10.1
					c2.4-3.7,4.3-7.6,5.8-11.9c1.7-5,3.5-10,3.7-15.2C252.5,175,253.2,166.1,251.1,157.4z M163.8,163.8c-1.2,3.6-2.6,7.2-4.1,10.8
					c-0.8,1.9-1,3.7-0.8,5.6c0.7,5.7,1.5,11.4,2.1,17.2c0.4,3.6,0.5,7.3,0.7,11c0,0.9-0.2,1.8-0.4,2.9c-0.2-3.8-0.3-7.2-0.6-10.5
					c-0.5-4.6-1.1-9.3-1.7-13.9c-0.7-5.3-1.4-10.6-2.2-15.9c-0.9-5.8-1.9-11.7-2.9-17.5c-0.1-0.8-0.2-1.8,0-2.6
					c1.8-6.1,3.6-12.2,5.6-18.3c-1.2,4.3,0.8,8.2,2,12.2c1.1,3.6,2.3,7.2,3.4,10.8C165.9,158.5,164.7,161.2,163.8,163.8z
					 M161.2,129.2c-0.2-0.1-0.4-0.2-0.5-0.3c1.8-3.7,3.6-7.4,5.4-11.1c0.2,0.1,0.3,0.2,0.5,0.3C164.8,121.8,163,125.5,161.2,129.2z"
					/>
				<path d="M191.3,41.1c2,0.8,4.1,1.5,6.2,2c0.4,0.1,1.4-0.5,1.6-1c0.9-3.5,2.1-10.7,1.9-10.7c0.2-3.2-0.3-6.2-1.9-9
					c-0.2-0.4-0.7-0.5-1.1-0.8c-0.2,0.4-0.5,0.8-0.6,1.2c-0.1,1.2-0.1,2.5,0,3.7c0.3,4-1.4,7.1-4,9.8c-0.8,0.9-1.7,1.7-2.4,2.6
					C190.3,39.7,190.2,40.7,191.3,41.1z"/>
			</g>
		</g>
	</g>
	<g>
		<path d="M67.8,280.7c-0.7-0.9-1.7-1.6-2.7-2.3c-1.1-0.6-2.2-0.9-3.3-0.9h-0.5v32.7H51.1v-42.6h10.6c2.8,0,5.2,0.5,7.2,1.4
			c1.9,0.9,3.8,2.4,5.6,4.4l20.6,23.7c0.7,0.9,1.7,1.6,2.7,2.2c1.1,0.6,2.2,1,3.3,1h0.5v-32.7h10.2v42.6h-10.7
			c-2.9,0-5.4-0.5-7.5-1.4c-2-1-3.9-2.5-5.7-4.6L67.8,280.7z"/>
		<path d="M163.3,267.6c8.6,0,12.8,3.5,12.8,10.4v6.7c0,6.1-4.3,9.1-12.8,9.1h-33.4c-1.6,0-2.4,0.5-2.4,1.5v5h47.3v9.9h-57.7v-16.1
			c0-6.8,4.3-10.2,12.8-10.2h33.4c1.6,0,2.4-0.5,2.4-1.5v-3.3c0-1-0.8-1.5-2.4-1.5h-44.4v-9.9H163.3z"/>
		<path d="M197.5,310.2c-10.7,0-16-4.5-16-13.5v-15.5c0-9.1,5.3-13.6,16-13.6h30.2c10.7,0,16,4.5,16,13.6v15.5c0,9-5.3,13.5-16,13.5
			H197.5z M197.5,277.5c-3.7,0-5.6,1.2-5.6,3.7v15.5c0,2.4,1.9,3.6,5.6,3.6h30.2c3.7,0,5.6-1.2,5.6-3.6v-15.5c0-2.4-1.9-3.7-5.6-3.7
			H197.5z"/>
		<path d="M296.2,267.6c8.2,0,12.3,3.5,12.3,10.4v3.8c0,2.7-1.2,4.9-3.6,6.5c2.7,1.2,4.1,3.1,4.1,5.9v5.6c0,7-4.3,10.4-12.8,10.4
			h-34.3c-8.5,0-12.8-3.5-12.8-10.4v-5.6c0-2.7,1.4-4.7,4.1-5.9c-2.4-1.6-3.6-3.8-3.6-6.5V278c0-6.9,4.1-10.4,12.3-10.4H296.2z
			 M296.5,284.3c1.4,0,2.1-0.6,2.1-1.7v-3.4c0-1.1-0.8-1.7-2.4-1.7h-34.3c-1.6,0-2.4,0.6-2.4,1.7v3.4c0,1.1,0.7,1.7,2.1,1.7H296.5z
			 M296.2,300.3c1.6,0,2.4-0.6,2.4-1.9v-3.9c0-0.9-0.7-1.4-2.1-1.4h-34.8c-1.4,0-2.1,0.5-2.1,1.4v3.9c0,1.2,0.8,1.9,2.4,1.9H296.2z"
			/>
	</g>
	<g>
		<path d="M50.7,325.4h17v2.8h-7v9.3h-3v-9.3h-7.1V325.4z"/>
		<path d="M80.8,328.5l2.1,6c0.1,0.4,0.3,0.6,0.6,0.6h0.3c0.3,0,0.5-0.2,0.5-0.6l1.1-5.9h3.2l-1.8,7.6c-0.1,0.5-0.3,0.8-0.7,1.1
			c-0.3,0.3-0.7,0.4-1.1,0.4h-2.2c-0.5,0-1-0.1-1.4-0.4c-0.4-0.3-0.7-0.6-0.8-1l-1.7-5.2h-0.6l-1.7,5.2c-0.1,0.4-0.4,0.8-0.8,1
			c-0.4,0.3-0.9,0.4-1.4,0.4h-2.2c-0.4,0-0.8-0.1-1.1-0.4c-0.3-0.3-0.5-0.6-0.7-1.1l-1.9-7.6h3.2l1.1,5.9c0.1,0.4,0.3,0.6,0.5,0.6
			h0.3c0.3,0,0.4-0.2,0.6-0.6l2-6H80.8z"/>
		<path d="M97.6,328.5c2.4,0,3.7,1,3.7,3v3.1c0,2-1.2,2.9-3.7,2.9H93c-2.4,0-3.7-1-3.7-3v-3.1c0-2,1.2-3,3.7-3H97.6z M93,330.8
			c-0.5,0-0.7,0.2-0.7,0.6v3c0,0.4,0.2,0.6,0.7,0.6h4.7c0.5,0,0.7-0.2,0.7-0.6v-3c0-0.4-0.2-0.6-0.7-0.6H93z"/>
		<path d="M122,337.5h-3v-6.1c0-0.4-0.2-0.6-0.7-0.6h-5.3v6.7h-3v-12.4h3v3.4h5.3c2.4,0,3.7,1,3.7,3V337.5z"/>
		<path d="M135.3,328.5v6.1c0,2-1.2,2.9-3.7,2.9h-4.5c-2.4,0-3.7-1-3.7-3v-6.1h3v6.1c0,0.3,0.2,0.4,0.7,0.4h4.5
			c0.5,0,0.7-0.1,0.7-0.4v-6.1H135.3z"/>
		<path d="M148.9,337.5h-3v-6.1c0-0.4-0.2-0.6-0.7-0.6h-5.4v6.7h-3v-9h8.3c2.4,0,3.7,1,3.7,3V337.5z"/>
		<path d="M162.4,325.1v9.5c0,2-1.2,3-3.7,3H154c-2.4,0-3.7-1-3.7-3v-3.1c0-2,1.2-3,3.7-3h5.4v-3.4H162.4z M154,330.8
			c-0.5,0-0.7,0.2-0.7,0.6v3c0,0.4,0.2,0.6,0.7,0.6h4.7c0.5,0,0.7-0.2,0.7-0.6v-3.6H154z"/>
		<path d="M166.9,337.5h-3v-6.1c0-2,1.2-3,3.7-3h3.9v2.4h-3.9c-0.5,0-0.7,0.2-0.7,0.6V337.5z"/>
		<path d="M183.7,335v2.5h-7.7c-2.3,0-3.4-0.9-3.4-2.7V331c0-1.7,1.1-2.5,3.4-2.5h5.6c1.6,0,2.3,0.7,2.3,2.1v1.3
			c0,0.7-0.2,1.2-0.6,1.5c-0.4,0.3-1,0.5-1.8,0.5h-6v0.6c0,0.4,0.2,0.6,0.7,0.6H183.7z M176.2,330.8c-0.5,0-0.7,0.2-0.7,0.7v0.6h4.8
			c0.4,0,0.6-0.2,0.6-0.7c0-0.4-0.2-0.6-0.6-0.6H176.2z"/>
		<path d="M197.4,325.1v9.5c0,2-1.2,3-3.7,3H189c-2.4,0-3.7-1-3.7-3v-3.1c0-2,1.2-3,3.7-3h5.4v-3.4H197.4z M189,330.8
			c-0.5,0-0.7,0.2-0.7,0.6v3c0,0.4,0.2,0.6,0.7,0.6h4.7c0.5,0,0.7-0.2,0.7-0.6v-3.6H189z"/>
		<path d="M206.3,330.8v-2.3h7.7c2.3,0,3.4,0.9,3.4,2.7v3.8c0,1.7-1.1,2.5-3.4,2.5h-5.6c-1.6,0-2.3-0.7-2.3-2.1v-1.4
			c0-1.4,0.8-2,2.3-2h6v-0.6c0-0.4-0.2-0.6-0.7-0.6H206.3z M213.8,335.2c0.5,0,0.7-0.2,0.7-0.7v-0.6h-4.8c-0.4,0-0.6,0.2-0.6,0.7
			c0,0.4,0.2,0.6,0.6,0.6H213.8z"/>
		<path d="M231,337.5h-3v-6.1c0-0.4-0.2-0.6-0.7-0.6h-5.4v6.7h-3v-9h8.3c2.4,0,3.7,1,3.7,3V337.5z"/>
		<path d="M244.5,325.1v9.5c0,2-1.2,3-3.7,3h-4.7c-2.4,0-3.7-1-3.7-3v-3.1c0-2,1.2-3,3.7-3h5.4v-3.4H244.5z M236.2,330.8
			c-0.5,0-0.7,0.2-0.7,0.6v3c0,0.4,0.2,0.6,0.7,0.6h4.7c0.5,0,0.7-0.2,0.7-0.6v-3.6H236.2z"/>
		<path d="M270.4,334.7v2.8H257c-2.4,0-3.7-1-3.7-3v-6.2c0-2,1.2-3,3.7-3h13.4v2.8H257c-0.5,0-0.7,0.2-0.7,0.6v1.2h13.9v2.8h-13.9
			v1.2c0,0.4,0.2,0.6,0.7,0.6H270.4z"/>
		<path d="M271.8,325.1h3v1.9h-3V325.1z M271.8,328.5h3v9h-3V328.5z"/>
		<path d="M284.4,338c0.6,0,1-0.3,1-0.8v-0.9h-6.5c-1.7,0-2.6-0.8-2.6-2.4v-3c0-1.6,1.2-2.4,3.7-2.4h4.7c2.4,0,3.7,0.8,3.7,2.4v6.7
			c0,2-1.2,3-3.7,3h-7.9V338H284.4z M285.3,333.7v-2.3c0-0.4-0.2-0.6-0.7-0.6h-4.7c-0.5,0-0.7,0.2-0.7,0.6v1.7
			c0,0.4,0.2,0.6,0.7,0.6H285.3z"/>
		<path d="M289.2,328.5h1.5v-2.8h2.8v2.8h1.7v2.4h-1.7v6.7h-2.8v-6.7h-1.5V328.5z"/>
		<path d="M308,337.5h-3v-6.1c0-0.4-0.2-0.6-0.7-0.6H299v6.7h-3v-12.4h3v3.4h5.3c2.4,0,3.7,1,3.7,3V337.5z"/>
	</g>
</g>
</svg>
